# xmcd
#
# Track frame offsets: 
#        160
#        21295
#        47710
#        63775
#        79015
#        100100
#        117177
#        132030
#        156275
#        176245
#        198832
#        212550
#        239877
#
# Disc length: 3527 seconds
#
# Revision: 2
# Processed by: cddbd v1.5.2PL0 Copyright (c) Steve Scherf et al.
# Submitted via: ExactAudioCopy v0.99pb4
#
DISCID=ae0dc50d
DTITLE=яЕПЦЕИ мЮЦНБХЖШМ - гнкнрхярше дем╗вйх
DYEAR=2000
DGENRE=Chanson
TTITLE0=бнкъ
TTITLE1=цскъи, апюрбю
TTITLE2=дн српю
TTITLE3=гнкнрхярше дем╗вйх
TTITLE4=цнбнпхкю лме люрэ
TTITLE5=бевеп дкъ гб╗гд
TTITLE6=мю опхбнйгюкэмни окныюдх
TTITLE7=аег опнярхрсрнй х бнпнб
TTITLE8=онкмюъ ксмю
TTITLE9=гю лнхл нймнл
TTITLE10=люкнкерйх
TTITLE11=опнунп лхрпхв
TTITLE12=няемэ
EXTD=
EXTT0=
EXTT1=
EXTT2=
EXTT3=
EXTT4=
EXTT5=
EXTT6=
EXTT7=
EXTT8=
EXTT9=
EXTT10=
EXTT11=
EXTT12=
PLAYORDER=
